<?xml version="1.0" standalone="no"?>
<!DOCTYPE svg PUBLIC "-//W3C//DTD SVG 20010904//EN"
 "http://www.w3.org/TR/2001/REC-SVG-20010904/DTD/svg10.dtd">
<svg version="1.0" xmlns="http://www.w3.org/2000/svg"
 width="80.000000pt" height="80.000000pt" viewBox="0 0 80.000000 80.000000"
 preserveAspectRatio="xMidYMid meet">
<metadata>
Created by potrace 1.11, written by Peter Selinger 2001-2013
</metadata>
<g transform="translate(0.000000,80.000000) scale(0.100000,-0.100000)"
fill="#000000" stroke="none">
<path d="M300 735 c-7 -8 -25 -15 -39 -15 -16 0 -37 -10 -51 -25 -13 -14 -30
-25 -37 -25 -18 0 -43 -25 -43 -43 0 -7 -11 -24 -25 -37 -15 -14 -25 -35 -25
-51 0 -14 -7 -32 -15 -39 -11 -9 -15 -35 -15 -105 0 -73 3 -94 15 -99 9 -3 15
-18 15 -34 0 -42 140 -182 182 -182 16 0 31 -6 34 -15 9 -22 166 -22 184 0 7
8 24 15 39 15 19 0 44 17 90 64 58 59 62 65 49 85 -7 11 -27 28 -45 36 -18 9
-35 20 -38 25 -3 6 -15 10 -25 10 -10 0 -27 11 -38 25 -11 14 -29 25 -41 25
-12 0 -21 4 -21 9 0 5 -10 11 -22 13 -29 4 -38 46 -11 54 10 3 26 10 35 15 10
5 23 9 28 9 6 0 21 11 34 25 13 14 30 25 38 25 9 0 21 7 28 15 7 8 19 15 27
15 7 0 26 13 42 29 l27 28 -67 67 c-46 46 -74 66 -92 66 -13 0 -30 7 -37 15
-9 11 -33 15 -90 15 -57 0 -81 -4 -90 -15z"/>
</g>
</svg>
